<svg width="113" height="36" viewBox="0 0 113 36" fill="none" xmlns="http://www.w3.org/2000/svg">
<rect width="113" height="36" rx="18" fill="#F4F8FA" fill-opacity="0.5"/>
<path d="M15.2097 11.9756L14.7063 14H10V24.0243H26V14H21.5131L21.0097 11.9756H15.2097ZM18.0409 13.9961C20.5261 13.9961 22.5402 16.0103 22.5402 18.4955C22.5402 20.9807 20.526 22.9948 18.0409 22.9948C15.5556 22.9948 13.5415 20.9806 13.5415 18.4955C13.5415 16.0102 15.5557 13.9961 18.0409 13.9961ZM23.3171 14.9756H25.5854V16.2926H23.3171V14.9756ZM18.0409 15.3249C16.2897 15.3249 14.8702 16.7445 14.8702 18.4955C14.8702 20.2467 16.2898 21.6661 18.0409 21.6661C19.792 21.6661 21.2115 20.2465 21.2115 18.4955C21.2115 16.7443 19.7919 15.3249 18.0409 15.3249Z" fill="#4B4B4B"/>
<path d="M42.576 20.556H38.376L37.548 22.5H35.94L39.72 14.1H41.256L45.048 22.5H43.416L42.576 20.556ZM42.06 19.332L40.476 15.66L38.904 19.332H42.06ZM52.1897 13.596V22.5H50.7497V21.672C50.5017 21.976 50.1937 22.204 49.8257 22.356C49.4657 22.508 49.0657 22.584 48.6257 22.584C48.0097 22.584 47.4537 22.448 46.9577 22.176C46.4697 21.904 46.0857 21.52 45.8057 21.024C45.5257 20.52 45.3857 19.944 45.3857 19.296C45.3857 18.648 45.5257 18.076 45.8057 17.58C46.0857 17.084 46.4697 16.7 46.9577 16.428C47.4537 16.156 48.0097 16.02 48.6257 16.02C49.0497 16.02 49.4377 16.092 49.7897 16.236C50.1417 16.38 50.4417 16.596 50.6897 16.884V13.596H52.1897ZM48.8057 21.3C49.1657 21.3 49.4897 21.22 49.7777 21.06C50.0657 20.892 50.2937 20.656 50.4617 20.352C50.6297 20.048 50.7137 19.696 50.7137 19.296C50.7137 18.896 50.6297 18.544 50.4617 18.24C50.2937 17.936 50.0657 17.704 49.7777 17.544C49.4897 17.376 49.1657 17.292 48.8057 17.292C48.4457 17.292 48.1217 17.376 47.8337 17.544C47.5457 17.704 47.3177 17.936 47.1497 18.24C46.9817 18.544 46.8977 18.896 46.8977 19.296C46.8977 19.696 46.9817 20.048 47.1497 20.352C47.3177 20.656 47.5457 20.892 47.8337 21.06C48.1217 21.22 48.4457 21.3 48.8057 21.3ZM60.428 13.596V22.5H58.988V21.672C58.74 21.976 58.432 22.204 58.064 22.356C57.704 22.508 57.304 22.584 56.864 22.584C56.248 22.584 55.692 22.448 55.196 22.176C54.708 21.904 54.324 21.52 54.044 21.024C53.764 20.52 53.624 19.944 53.624 19.296C53.624 18.648 53.764 18.076 54.044 17.58C54.324 17.084 54.708 16.7 55.196 16.428C55.692 16.156 56.248 16.02 56.864 16.02C57.288 16.02 57.676 16.092 58.028 16.236C58.38 16.38 58.68 16.596 58.928 16.884V13.596H60.428ZM57.044 21.3C57.404 21.3 57.728 21.22 58.016 21.06C58.304 20.892 58.532 20.656 58.7 20.352C58.868 20.048 58.952 19.696 58.952 19.296C58.952 18.896 58.868 18.544 58.7 18.24C58.532 17.936 58.304 17.704 58.016 17.544C57.728 17.376 57.404 17.292 57.044 17.292C56.684 17.292 56.36 17.376 56.072 17.544C55.784 17.704 55.556 17.936 55.388 18.24C55.22 18.544 55.136 18.896 55.136 19.296C55.136 19.696 55.22 20.048 55.388 20.352C55.556 20.656 55.784 20.892 56.072 21.06C56.36 21.22 56.684 21.3 57.044 21.3ZM69.3067 14.1C70.0347 14.1 70.6667 14.22 71.2027 14.46C71.7467 14.7 72.1627 15.044 72.4507 15.492C72.7387 15.94 72.8827 16.472 72.8827 17.088C72.8827 17.696 72.7387 18.228 72.4507 18.684C72.1627 19.132 71.7467 19.476 71.2027 19.716C70.6667 19.956 70.0347 20.076 69.3067 20.076H67.4107V22.5H65.8507V14.1H69.3067ZM69.2347 18.756C69.9147 18.756 70.4307 18.612 70.7827 18.324C71.1347 18.036 71.3107 17.624 71.3107 17.088C71.3107 16.552 71.1347 16.14 70.7827 15.852C70.4307 15.564 69.9147 15.42 69.2347 15.42H67.4107V18.756H69.2347ZM78.0497 16.02C78.8577 16.02 79.5057 16.256 79.9937 16.728C80.4817 17.2 80.7257 17.9 80.7257 18.828V22.5H79.2257V19.02C79.2257 18.46 79.0937 18.04 78.8297 17.76C78.5657 17.472 78.1897 17.328 77.7017 17.328C77.1497 17.328 76.7137 17.496 76.3937 17.832C76.0737 18.16 75.9137 18.636 75.9137 19.26V22.5H74.4137V13.596H75.9137V16.836C76.1617 16.572 76.4657 16.372 76.8257 16.236C77.1937 16.092 77.6017 16.02 78.0497 16.02ZM85.5671 22.584C84.9191 22.584 84.3351 22.444 83.8151 22.164C83.2951 21.884 82.8871 21.496 82.5911 21C82.3031 20.496 82.1591 19.928 82.1591 19.296C82.1591 18.664 82.3031 18.1 82.5911 17.604C82.8871 17.108 83.2951 16.72 83.8151 16.44C84.3351 16.16 84.9191 16.02 85.5671 16.02C86.2231 16.02 86.8111 16.16 87.3311 16.44C87.8511 16.72 88.2551 17.108 88.5431 17.604C88.8391 18.1 88.9871 18.664 88.9871 19.296C88.9871 19.928 88.8391 20.496 88.5431 21C88.2551 21.496 87.8511 21.884 87.3311 22.164C86.8111 22.444 86.2231 22.584 85.5671 22.584ZM85.5671 21.3C86.1191 21.3 86.5751 21.116 86.9351 20.748C87.2951 20.38 87.4751 19.896 87.4751 19.296C87.4751 18.696 87.2951 18.212 86.9351 17.844C86.5751 17.476 86.1191 17.292 85.5671 17.292C85.0151 17.292 84.5591 17.476 84.1991 17.844C83.8471 18.212 83.6711 18.696 83.6711 19.296C83.6711 19.896 83.8471 20.38 84.1991 20.748C84.5591 21.116 85.0151 21.3 85.5671 21.3ZM94.2735 22.152C94.0975 22.296 93.8815 22.404 93.6255 22.476C93.3775 22.548 93.1135 22.584 92.8335 22.584C92.1295 22.584 91.5855 22.4 91.2015 22.032C90.8175 21.664 90.6255 21.128 90.6255 20.424V17.34H89.5695V16.14H90.6255V14.676H92.1255V16.14H93.8415V17.34H92.1255V20.388C92.1255 20.7 92.2015 20.94 92.3535 21.108C92.5055 21.268 92.7255 21.348 93.0135 21.348C93.3495 21.348 93.6295 21.26 93.8535 21.084L94.2735 22.152ZM98.1765 22.584C97.5285 22.584 96.9445 22.444 96.4245 22.164C95.9045 21.884 95.4965 21.496 95.2005 21C94.9125 20.496 94.7685 19.928 94.7685 19.296C94.7685 18.664 94.9125 18.1 95.2005 17.604C95.4965 17.108 95.9045 16.72 96.4245 16.44C96.9445 16.16 97.5285 16.02 98.1765 16.02C98.8325 16.02 99.4205 16.16 99.9405 16.44C100.461 16.72 100.865 17.108 101.153 17.604C101.449 18.1 101.597 18.664 101.597 19.296C101.597 19.928 101.449 20.496 101.153 21C100.865 21.496 100.461 21.884 99.9405 22.164C99.4205 22.444 98.8325 22.584 98.1765 22.584ZM98.1765 21.3C98.7285 21.3 99.1845 21.116 99.5445 20.748C99.9045 20.38 100.085 19.896 100.085 19.296C100.085 18.696 99.9045 18.212 99.5445 17.844C99.1845 17.476 98.7285 17.292 98.1765 17.292C97.6245 17.292 97.1685 17.476 96.8085 17.844C96.4565 18.212 96.2805 18.696 96.2805 19.296C96.2805 19.896 96.4565 20.38 96.8085 20.748C97.1685 21.116 97.6245 21.3 98.1765 21.3Z" fill="#4B4B4B"/>
</svg>
