<svg xmlns="http://www.w3.org/2000/svg" width="28" height="26.301" viewBox="0 0 28 26.301">
  <g id="Group_263" data-name="Group 263" transform="translate(-36 -567.548)">
    <path id="Path_1282" data-name="Path 1282" d="M6.186,995.132c1.322-.536,2.3-1.1,3.985-.564,1.321.423,2.139,1.336,3.711,1.382,1.7.049,2.455-.81,3.794-1.294,2.006-.725,3.467.343,4.209.46a8.263,8.263,0,0,1,.445-.767c.155-.275.313-.508.477-.809.271-.5.571-1.1.876-1.633.735-1.29,2.726-5.424,3.366-6.76.523-1.091,1.576-2.534.491-3.658-.79-.819-9.551-4.123-11.816-5.011a17.273,17.273,0,0,0-1.747-.693c-.277-.058-6.014,2.363-6.792,2.688-1.348.564-5.942,2.253-6.679,3.016-1.059,1.1-.178,2.289.442,3.634.556,1.2,1.077,2.279,1.644,3.467a42.623,42.623,0,0,0,3.594,6.544Z" transform="translate(35.987 -404.391)" fill="#b1b1b1" fill-rule="evenodd"/>
    <path id="Path_1283" data-name="Path 1283" d="M225.421,2.928c-1.319.045-2.685.006-4.009.006-3.613,0-3.514.947-3.92,4.823-.148,1.419-.345,2.9-.442,4.314l2.135-.945.627-5.664A21.879,21.879,0,0,1,224,5.356c1.279,0,3.037-.119,4.258.015l.015,1.98c.316-.076.71-.362,1-.3s.713.31,1.057.4V5.35c1.325.028,7.858-.186,8.456.114l.615,5.677,2.162.931c-.095-1.4-.289-2.851-.434-4.245-.4-3.841-.28-4.894-3.859-4.894-1.347,0-2.736.039-4.077-.006-.053-.487-.172-1.061-.253-1.541-.1-.57-.107-1.105-.524-1.309a54.568,54.568,0,0,0-6.218,0c-.4.2-.418.692-.512,1.242-.086.507-.21,1.1-.265,1.608Z" transform="translate(-179.295 567.559)" fill="#b1b1b1" fill-rule="evenodd"/>
    <path id="Path_1284" data-name="Path 1284" d="M515.7,3410.743a11.521,11.521,0,0,1,2.321-1.1,3.723,3.723,0,0,1,2.1.063,21.825,21.825,0,0,1,2.051.784,4.6,4.6,0,0,0,1.9.438,5.627,5.627,0,0,0,2.045-.551,8.825,8.825,0,0,1,1.752-.756,4.615,4.615,0,0,1,1.95.113,7.482,7.482,0,0,1,1.916.727c.632.346,1.269.813,1.283,1.046s-.595.233-1.376.014a10.789,10.789,0,0,0-2.568-.664,5.667,5.667,0,0,0-2.315.761,7.551,7.551,0,0,1-2.257.665,4.881,4.881,0,0,1-2.16-.446,12.023,12.023,0,0,0-3.78-.881,9.556,9.556,0,0,0-3.039.861c-.781.247-1.344.148-1.292-.078s.718-.579,1.465-1Z" transform="translate(-474.07 -2818.444)" fill="#b1b1b1" fill-rule="evenodd"/>
  </g>
</svg>
