<svg width="25" height="25" viewBox="0 0 34 34" fill="none" xmlns="http://www.w3.org/2000/svg">
<path d="M9.83301 24.1668C10.1386 24.4724 10.5275 24.6252 10.9997 24.6252C11.4719 24.6252 11.8608 24.4724 12.1663 24.1668L16.9997 19.3335L21.8747 24.2085C22.1802 24.5141 22.5625 24.6596 23.0213 24.6452C23.4791 24.6318 23.8608 24.4724 24.1663 24.1668C24.4719 23.8613 24.6247 23.4724 24.6247 23.0002C24.6247 22.5279 24.4719 22.1391 24.1663 21.8335L19.333 17.0002L24.208 12.1252C24.5136 11.8196 24.6591 11.4374 24.6447 10.9785C24.6313 10.5207 24.4719 10.1391 24.1663 9.8335C23.8608 9.52794 23.4719 9.37516 22.9997 9.37516C22.5275 9.37516 22.1386 9.52794 21.833 9.8335L16.9997 14.6668L12.1247 9.79183C11.8191 9.48627 11.4375 9.34016 10.9797 9.3535C10.5208 9.36794 10.1386 9.52794 9.83301 9.8335C9.52745 10.1391 9.37467 10.5279 9.37467 11.0002C9.37467 11.4724 9.52745 11.8613 9.83301 12.1668L14.6663 17.0002L9.79134 21.8752C9.48579 22.1807 9.34023 22.5624 9.35467 23.0202C9.36801 23.4791 9.52745 23.8613 9.83301 24.1668ZM16.9997 33.6668C14.6941 33.6668 12.5275 33.229 10.4997 32.3535C8.4719 31.4791 6.70801 30.2918 5.20801 28.7918C3.70801 27.2918 2.52079 25.5279 1.64634 23.5002C0.770786 21.4724 0.333008 19.3057 0.333008 17.0002C0.333008 14.6946 0.770786 12.5279 1.64634 10.5002C2.52079 8.47239 3.70801 6.7085 5.20801 5.2085C6.70801 3.7085 8.4719 2.52072 10.4997 1.64516C12.5275 0.770718 14.6941 0.333496 16.9997 0.333496C19.3052 0.333496 21.4719 0.770718 23.4997 1.64516C25.5275 2.52072 27.2913 3.7085 28.7913 5.2085C30.2913 6.7085 31.4786 8.47239 32.353 10.5002C33.2286 12.5279 33.6663 14.6946 33.6663 17.0002C33.6663 19.3057 33.2286 21.4724 32.353 23.5002C31.4786 25.5279 30.2913 27.2918 28.7913 28.7918C27.2913 30.2918 25.5275 31.4791 23.4997 32.3535C21.4719 33.229 19.3052 33.6668 16.9997 33.6668Z" fill="#FF0000"/>
</svg>
