<svg width="12" height="11" viewBox="0 0 12 11" fill="none" xmlns="http://www.w3.org/2000/svg">
<path d="M8.3875 1.9002L10.2667 3.77936C10.3458 3.85853 10.3458 3.9877 10.2667 4.06686L5.71667 8.61686L3.78333 8.83145C3.525 8.86061 3.30625 8.64186 3.33542 8.38353L3.55 6.4502L8.1 1.9002C8.17917 1.82103 8.30833 1.82103 8.3875 1.9002ZM11.7625 1.42311L10.7458 0.406445C10.4292 0.0897786 9.91458 0.0897786 9.59583 0.406445L8.85833 1.14395C8.77917 1.22311 8.77917 1.35228 8.85833 1.43145L10.7375 3.31061C10.8167 3.38978 10.9458 3.38978 11.025 3.31061L11.7625 2.57311C12.0792 2.25436 12.0792 1.73978 11.7625 1.42311ZM8 7.37936V9.5002H1.33333V2.83353H6.12083C6.1875 2.83353 6.25 2.80645 6.29792 2.76061L7.13125 1.92728C7.28958 1.76895 7.17708 1.5002 6.95417 1.5002H1C0.447917 1.5002 0 1.94811 0 2.5002V9.83353C0 10.3856 0.447917 10.8335 1 10.8335H8.33333C8.88542 10.8335 9.33333 10.3856 9.33333 9.83353V6.54603C9.33333 6.32311 9.06458 6.2127 8.90625 6.36895L8.07292 7.20228C8.02708 7.2502 8 7.3127 8 7.37936Z" fill="white"/>
</svg>
