<svg width="6" height="8" viewBox="0 0 6 8" fill="none" xmlns="http://www.w3.org/2000/svg">
<path d="M3 4.3335C3.55228 4.3335 4 3.88578 4 3.3335C4 2.78121 3.55228 2.3335 3 2.3335C2.44772 2.3335 2 2.78121 2 3.3335C2 3.88578 2.44772 4.3335 3 4.3335Z" stroke="#00A6FF" stroke-width="0.6" stroke-linecap="round" stroke-linejoin="round"/>
<path d="M3.00016 0.666748C2.29292 0.666748 1.61464 0.9477 1.11454 1.4478C0.614448 1.94789 0.333496 2.62617 0.333496 3.33341C0.333496 3.96408 0.467496 4.37675 0.833496 4.83341L3.00016 7.33341L5.16683 4.83341C5.53283 4.37675 5.66683 3.96408 5.66683 3.33341C5.66683 2.62617 5.38588 1.94789 4.88578 1.4478C4.38568 0.9477 3.70741 0.666748 3.00016 0.666748V0.666748Z" stroke="#00A6FF" stroke-width="0.6" stroke-linecap="round" stroke-linejoin="round"/>
</svg>
