<svg xmlns="http://www.w3.org/2000/svg" width="14" height="18.375" viewBox="0 0 14 18.375">
  <path id="path" d="M829.35,1084.925a1.794,1.794,0,0,1,1.75,1.75v8.75a1.794,1.794,0,0,1-1.75,1.75h-10.5a1.794,1.794,0,0,1-1.75-1.75v-8.75a1.794,1.794,0,0,1,1.75-1.75h.875v-1.75a3.972,3.972,0,0,1,1.313-3.062,4.628,4.628,0,0,1,3.063-1.312,4.1,4.1,0,0,1,3.063,1.313,4.627,4.627,0,0,1,1.313,3.063v1.75Zm-2.537,0v-1.75a2.714,2.714,0,0,0-.787-1.925,2.713,2.713,0,0,0-4.638,1.925v1.75Zm-3.937,7.35a1.692,1.692,0,1,0-.525-1.225A1.727,1.727,0,0,0,822.875,1092.275Z" transform="translate(-817.1 -1078.8)" fill="#ff8526"/>
</svg>
