<svg xmlns="http://www.w3.org/2000/svg" width="22" height="22" viewBox="0 0 22 22">
  <path id="path" d="M707.49,1083.09a10.457,10.457,0,0,1,7.81-3.19,10.888,10.888,0,0,1,7.81,3.19,10.292,10.292,0,0,1,3.19,7.81,10.888,10.888,0,0,1-3.19,7.81,10.292,10.292,0,0,1-7.81,3.19,10.887,10.887,0,0,1-7.81-3.19,11.155,11.155,0,0,1,0-15.62Zm-.77,9.9h3.74a14.753,14.753,0,0,1-.11-2.2,14.034,14.034,0,0,1,.11-2.2h-3.74a10.591,10.591,0,0,0-.33,2.2A9.672,9.672,0,0,0,706.72,1092.99Zm4.18-6.6a19.607,19.607,0,0,1,1.54-3.96,8.216,8.216,0,0,0-4.84,3.96Zm-3.3,8.8a8.63,8.63,0,0,0,4.84,3.96,15.609,15.609,0,0,1-1.54-3.96Zm10.23-2.2a14.753,14.753,0,0,0,.11-2.2,14.034,14.034,0,0,0-.11-2.2h-5.17a14.744,14.744,0,0,0-.11,2.2,14.028,14.028,0,0,0,.11,2.2Zm-2.64-11a14.634,14.634,0,0,0-2.09,4.4h4.18A13.353,13.353,0,0,0,715.19,1081.99Zm0,17.6a14.637,14.637,0,0,0,2.09-4.4H713.1A17.868,17.868,0,0,0,715.19,1099.59Zm7.7-13.2a8.63,8.63,0,0,0-4.84-3.96,15.609,15.609,0,0,1,1.54,3.96Zm-4.84,12.76a8.216,8.216,0,0,0,4.84-3.96h-3.3A19.613,19.613,0,0,1,718.05,1099.15Zm1.98-6.16h3.74a7.5,7.5,0,0,0,0-4.4h-3.74a14.744,14.744,0,0,1,.11,2.2A14.021,14.021,0,0,1,720.03,1092.99Z" transform="translate(-704.3 -1079.9)" fill="#b1b1b1"/>
</svg>
