<svg xmlns="http://www.w3.org/2000/svg" width="25" height="25" viewBox="0 0 25 25">
  <path id="path" d="M208.335,811.674H210.7v2.252h-2.365a10.215,10.215,0,0,1-9.009,9.009V825.3h-2.252v-2.365a10.215,10.215,0,0,1-9.009-9.009H185.7v-2.252h2.365a10.215,10.215,0,0,1,9.009-9.009V800.3h2.252v2.365a9.719,9.719,0,0,1,6.081,2.928A10.334,10.334,0,0,1,208.335,811.674Zm-15.653,6.757a7.392,7.392,0,0,0,5.518,2.252,7.8,7.8,0,1,0-7.77-7.77A7.393,7.393,0,0,0,192.682,818.431Zm2.365-8.784A4.354,4.354,0,1,1,193.7,812.8,4.262,4.262,0,0,1,195.047,809.647Z" transform="translate(-185.7 -800.3)" fill="#b1b1b1"/>
</svg>
