<svg width="52" height="52" viewBox="0 0 52 52" fill="none" xmlns="http://www.w3.org/2000/svg">
<g filter="url(#filter0_d_318_1152)">
<circle cx="26" cy="22" r="17" fill="white"/>
<circle cx="26" cy="22" r="17" stroke="#DDDDDD" stroke-width="0.08"/>
</g>
<path d="M35 22.8C35.4418 22.8 35.8 22.4418 35.8 22C35.8 21.5582 35.4418 21.2 35 21.2V22.8ZM16.4343 21.4343C16.1219 21.7467 16.1219 22.2533 16.4343 22.5657L21.5255 27.6569C21.8379 27.9693 22.3444 27.9693 22.6569 27.6569C22.9693 27.3444 22.9693 26.8379 22.6569 26.5255L18.1314 22L22.6569 17.4745C22.9693 17.1621 22.9693 16.6556 22.6569 16.3431C22.3444 16.0307 21.8379 16.0307 21.5255 16.3431L16.4343 21.4343ZM35 21.2L17 21.2V22.8L35 22.8V21.2Z" fill="#4B4B4B"/>
<defs>
<filter id="filter0_d_318_1152" x="0.959961" y="0.959961" width="50.0801" height="50.0801" filterUnits="userSpaceOnUse" color-interpolation-filters="sRGB">
<feFlood flood-opacity="0" result="BackgroundImageFix"/>
<feColorMatrix in="SourceAlpha" type="matrix" values="0 0 0 0 0 0 0 0 0 0 0 0 0 0 0 0 0 0 127 0" result="hardAlpha"/>
<feOffset dy="4"/>
<feGaussianBlur stdDeviation="4"/>
<feComposite in2="hardAlpha" operator="out"/>
<feColorMatrix type="matrix" values="0 0 0 0 0.294118 0 0 0 0 0.294118 0 0 0 0 0.294118 0 0 0 0.05 0"/>
<feBlend mode="normal" in2="BackgroundImageFix" result="effect1_dropShadow_318_1152"/>
<feBlend mode="normal" in="SourceGraphic" in2="effect1_dropShadow_318_1152" result="shape"/>
</filter>
</defs>
</svg>
