<svg width="16" height="16" viewBox="0 0 16 16" fill="none" xmlns="http://www.w3.org/2000/svg">
<path d="M1.6665 2.33337C1.6665 2.06816 1.77186 1.8138 1.9594 1.62627C2.14693 1.43873 2.40129 1.33337 2.6665 1.33337H10.6665C10.9317 1.33337 11.1861 1.43873 11.3736 1.62627C11.5611 1.8138 11.6665 2.06816 11.6665 2.33337V14.6667H2.6665C2.40129 14.6667 2.14693 14.5614 1.9594 14.3738C1.77186 14.1863 1.6665 13.9319 1.6665 13.6667V2.33337ZM11.6665 8.00004C11.6665 7.82323 11.7367 7.65366 11.8618 7.52864C11.9868 7.40361 12.1564 7.33337 12.3332 7.33337H13.6665C13.8433 7.33337 14.0129 7.40361 14.1379 7.52864C14.2629 7.65366 14.3332 7.82323 14.3332 8.00004V13.6667C14.3332 13.9319 14.2278 14.1863 14.0403 14.3738C13.8527 14.5614 13.5984 14.6667 13.3332 14.6667H11.6665V8.00004Z" stroke="white" stroke-width="1.4" stroke-linejoin="round"/>
<path d="M3.6665 4H6.33317M3.6665 6.33333H7.6665" stroke="white" stroke-width="1.4" stroke-linecap="round" stroke-linejoin="round"/>
</svg>
