<svg width="18" height="18" viewBox="0 0 18 18" fill="none" xmlns="http://www.w3.org/2000/svg">
<g clip-path="url(#clip0_1586_14146)">
<path d="M4.78 3.75977C2.70262 3.75977 1 5.45717 1 7.52897C1 8.33177 1.25632 9.07787 1.6903 9.69113L4.31884 14.235C4.68694 14.716 4.93174 14.6247 5.23792 14.2098L8.137 9.27605C8.1955 9.16985 8.2414 9.05717 8.28154 8.94197C8.46551 8.4936 8.5601 8.01361 8.56 7.52897C8.56 5.45717 6.85792 3.75977 4.78 3.75977ZM4.78 5.52593C5.89888 5.52593 6.7888 6.41351 6.7888 7.52915C6.7888 8.64479 5.89888 9.53201 4.78 9.53201C3.6613 9.53201 2.7712 8.64461 2.7712 7.52915C2.7712 6.41351 3.6613 5.52593 4.78 5.52593V5.52593Z" stroke="white" stroke-width="1.2"/>
<path d="M21 32C9.459 32 0 41.43 0 52.94C0 57.4 1.424 61.545 3.835 64.952L18.438 90.196C20.483 92.868 21.843 92.361 23.544 90.056L39.65 62.646C39.975 62.056 40.23 61.43 40.453 60.79C41.4751 58.2991 42.0006 55.6325 42 52.94C42 41.43 32.544 32 21 32ZM21 41.812C27.216 41.812 32.16 46.743 32.16 52.941C32.16 59.139 27.216 64.068 21 64.068C14.785 64.068 9.84 59.138 9.84 52.941C9.84 46.743 14.785 41.812 21 41.812ZM87.75 0C81.018 0 75.5 5.501 75.5 12.216C75.5 14.817 76.33 17.235 77.737 19.222L86.256 33.948C87.449 35.506 88.242 35.21 89.234 33.866L98.629 17.876C98.819 17.533 98.968 17.168 99.097 16.794C99.6934 15.3414 100 13.7863 100 12.216C100 5.5 94.484 0 87.75 0ZM87.75 5.724C91.376 5.724 94.26 8.6 94.26 12.216C94.26 15.831 91.376 18.706 87.75 18.706C84.125 18.706 81.24 15.831 81.24 12.216C81.24 8.6 84.125 5.724 87.75 5.724Z" fill="white"/>
<path fill-rule="evenodd" clip-rule="evenodd" d="M16.8773 3.73438C16.4729 3.74338 16.0673 3.76048 15.6611 3.79054L15.7237 4.7863C16.1139 4.75803 16.5049 4.73985 16.896 4.73176L16.8773 3.73438ZM14.7218 3.88197C14.0972 3.95955 13.4672 4.07008 12.8444 4.24774L13.079 5.21272C13.6449 5.05144 14.2313 4.94721 14.8269 4.87323L14.7218 3.88197ZM11.9118 4.58182C11.7252 4.66419 11.5446 4.75939 11.3711 4.86676L11.3704 4.86766L11.3693 4.86802C11.1218 5.0239 10.861 5.22172 10.6481 5.50918C10.4938 5.71744 10.3676 5.98078 10.3381 6.29218L11.2552 6.39388C11.262 6.3208 11.2995 6.22432 11.3668 6.1336H11.3672V6.13323C11.4757 5.98636 11.6384 5.85298 11.8319 5.73094L11.8326 5.73058C11.9706 5.64545 12.1142 5.56991 12.2625 5.5045L11.9118 4.58182ZM11.4397 6.83812L10.8452 7.60042C10.9861 7.7293 11.1339 7.8283 11.2766 7.9111L11.2784 7.91199L11.2802 7.91307C11.754 8.18254 12.2425 8.33464 12.6954 8.479L12.9557 7.52176C12.503 7.3774 12.0762 7.23808 11.7104 7.03036C11.6057 6.96952 11.5139 6.90598 11.4397 6.83812ZM13.84 7.79104L13.5858 8.7499L13.7061 8.78734L13.8537 8.8345C14.3422 8.99344 14.8102 9.16318 15.2285 9.39808L15.653 8.51248C15.1472 8.22826 14.6221 8.0425 14.1161 7.87798L14.1147 7.87762L13.9631 7.8292L13.84 7.79104ZM16.5161 9.17704L15.8639 9.88264C16.018 10.0495 16.1334 10.2502 16.1895 10.4576L16.1899 10.4586L16.1903 10.4603C16.2572 10.7024 16.2574 10.9871 16.205 11.2748L17.1093 11.4677C17.1831 11.0616 17.195 10.6158 17.0737 10.1757C16.968 9.78652 16.7664 9.44848 16.5161 9.17704ZM15.8893 11.876C15.7896 11.9812 15.6795 12.076 15.5606 12.1589H15.5603C15.2363 12.3868 14.8604 12.5585 14.4612 12.7061L14.7589 13.65C15.1956 13.4886 15.644 13.2906 16.063 12.9957L16.0641 12.9948L16.0646 12.9945C16.2367 12.874 16.3959 12.736 16.5396 12.5828L15.8893 11.876ZM13.6141 12.972C13.0358 13.1275 12.4446 13.2459 11.8463 13.3464L11.9874 14.3326C12.6032 14.2291 13.2215 14.1054 13.836 13.9402L13.6141 12.972ZM10.9461 13.4825C10.3439 13.5647 9.73833 13.6319 9.13101 13.6891L9.21057 14.6831C9.82725 14.6251 10.445 14.5569 11.0619 14.4725L10.9461 13.4825ZM8.21823 13.7674C7.60965 13.8156 6.99963 13.8549 6.38907 13.888L6.43515 14.8845C7.05165 14.8512 7.66869 14.8114 8.28555 14.7624L8.21823 13.7674ZM5.47161 13.933C5.10567 13.9501 4.73883 13.9641 4.37109 13.9771L4.40133 14.9745C4.77137 14.9618 5.14134 14.947 5.51121 14.9302L5.47161 13.933Z" fill="white"/>
</g>
<defs>
<clipPath id="clip0_1586_14146">
<rect width="18" height="18" fill="white"/>
</clipPath>
</defs>
</svg>
