<svg xmlns="http://www.w3.org/2000/svg" width="22" height="24.567" viewBox="0 0 22 24.567">
  <path id="path" d="M650.855,1011.667a2.506,2.506,0,0,1,2.444,2.444v17.111a2.506,2.506,0,0,1-2.444,2.444H633.744a2.506,2.506,0,0,1-2.444-2.444v-17.111a2.506,2.506,0,0,1,2.444-2.444h5.133a4,4,0,0,1,1.344-1.833,3.311,3.311,0,0,1,4.156,0,4,4,0,0,1,1.344,1.833h5.133ZM648.411,1019v-2.444H636.189V1019Zm0,4.889v-2.444H636.189v2.444Zm-3.667,4.889v-2.444h-8.555v2.444Zm-1.589-16.744a1.182,1.182,0,1,0,.367.856A1.109,1.109,0,0,0,643.156,1012.033Z" transform="translate(-631.3 -1009.1)" fill="#b1b1b1"/>
</svg>
