<svg width="36" height="27" viewBox="0 0 36 27" fill="none" xmlns="http://www.w3.org/2000/svg">
<path d="M19.25 26.75V19.25H24.25L18 11.75L11.75 19.25H16.75V26.75H10.5V26.6875C10.29 26.7 10.09 26.75 9.875 26.75C7.3886 26.75 5.00403 25.7623 3.24587 24.0041C1.48772 22.246 0.5 19.8614 0.5 17.375C0.5 12.565 4.1375 8.645 8.805 8.1075C9.21422 5.96823 10.3561 4.03842 12.0343 2.65C13.7124 1.26157 15.8219 0.50132 18 0.5C20.1784 0.501219 22.2882 1.26138 23.9668 2.64978C25.6454 4.03817 26.7878 5.96803 27.1975 8.1075C31.865 8.645 35.4975 12.565 35.4975 17.375C35.4975 19.8614 34.5098 22.246 32.7516 24.0041C30.9935 25.7623 28.6089 26.75 26.1225 26.75C25.9125 26.75 25.71 26.7 25.4975 26.6875V26.75H19.25Z" fill="#B1B1B1"/>
</svg>
