<svg xmlns="http://www.w3.org/2000/svg" width="30" height="19.091" viewBox="0 0 30 19.091">
  <path id="path" d="M376.291,989.854a21.145,21.145,0,0,1,3.955-.546,14.452,14.452,0,0,1,3.955.546,14.02,14.02,0,0,1,3.818,1.636,3.29,3.29,0,0,1,1.773,2.591v3.409H370.7v-3.409a3,3,0,0,1,1.773-2.591A11.992,11.992,0,0,1,376.291,989.854Zm6.682-4.5a3.954,3.954,0,1,1,1.227-2.864A3.925,3.925,0,0,1,382.973,985.354Zm10.909,0a3.954,3.954,0,1,1,1.227-2.864A3.925,3.925,0,0,1,393.882,985.354Zm-2.864,3.955a14.451,14.451,0,0,1,3.955.545,17.191,17.191,0,0,1,3.955,1.636,3,3,0,0,1,1.773,2.591v3.409h-8.182v-3.409c0-1.909-.955-3.409-2.727-4.773Z" transform="translate(-370.7 -978.4)" fill="#b1b1b1"/>
</svg>
