<svg width="42" height="42" viewBox="0 0 42 42" fill="none" xmlns="http://www.w3.org/2000/svg">
<circle cx="21" cy="21" r="20" fill="#DDF3FF" fill-opacity="0.5" stroke="#00A6FF" stroke-width="0.05"/>
<g clip-path="url(#clip0_91_1009)">
<path d="M15.2 17.4C12.8918 17.4 11 19.286 11 21.588C11 22.48 11.2848 23.309 11.767 23.9904L14.6876 29.0392C15.0966 29.5736 15.3686 29.4722 15.7088 29.0112L18.93 23.5292C18.995 23.4112 19.046 23.286 19.0906 23.158C19.295 22.6598 19.4001 22.1265 19.4 21.588C19.4 19.286 17.5088 17.4 15.2 17.4ZM15.2 19.3624C16.4432 19.3624 17.432 20.3486 17.432 21.5882C17.432 22.8278 16.4432 23.8136 15.2 23.8136C13.957 23.8136 12.968 22.8276 12.968 21.5882C12.968 20.3486 13.957 19.3624 15.2 19.3624V19.3624ZM28.55 11C27.2036 11 26.1 12.1002 26.1 13.4432C26.1 13.9634 26.266 14.447 26.5474 14.8444L28.2512 17.7896C28.4898 18.1012 28.6484 18.042 28.8468 17.7732L30.7258 14.5752C30.7638 14.5066 30.7936 14.4336 30.8194 14.3588C30.9387 14.0683 31 13.7573 31 13.4432C31 12.1 29.8968 11 28.55 11ZM28.55 12.1448C29.2752 12.1448 29.852 12.72 29.852 13.4432C29.852 14.1662 29.2752 14.7412 28.55 14.7412C27.825 14.7412 27.248 14.1662 27.248 13.4432C27.248 12.72 27.825 12.1448 28.55 12.1448V12.1448Z" fill="#00A6FF"/>
<path fill-rule="evenodd" clip-rule="evenodd" d="M28.6418 18.4824C28.1924 18.4924 27.7418 18.5114 27.2904 18.5448L27.36 19.6512C27.7936 19.6198 28.2279 19.5996 28.6626 19.5906L28.6418 18.4824ZM26.2468 18.6464C25.5528 18.7326 24.8528 18.8554 24.1608 19.0528L24.4214 20.125C25.0502 19.9458 25.7018 19.83 26.3636 19.7478L26.2468 18.6464ZM23.1246 19.424C22.9172 19.5155 22.7165 19.6213 22.5238 19.7406L22.523 19.7416L22.5218 19.742C22.2468 19.9152 21.957 20.135 21.7204 20.4544C21.549 20.6858 21.4088 20.9784 21.376 21.3244L22.395 21.4374C22.4026 21.3562 22.4442 21.249 22.519 21.1482H22.5194V21.1478C22.64 20.9846 22.8208 20.8364 23.0358 20.7008L23.0366 20.7004C23.1898 20.6058 23.3494 20.5219 23.5142 20.4492L23.1246 19.424ZM22.6 21.931L21.9394 22.778C22.096 22.9212 22.2602 23.0312 22.4188 23.1232L22.4208 23.1242L22.4228 23.1254C22.9492 23.4248 23.492 23.5938 23.9952 23.7542L24.2844 22.6906C23.7814 22.5302 23.3072 22.3754 22.9008 22.1446C22.7844 22.077 22.6824 22.0064 22.6 21.931V21.931ZM25.267 22.9898L24.9846 24.0552L25.1182 24.0968L25.2822 24.1492C25.825 24.3258 26.345 24.5144 26.8098 24.7754L27.2814 23.7914C26.7194 23.4756 26.136 23.2692 25.5738 23.0864L25.5722 23.086L25.4038 23.0322L25.267 22.9898ZM28.2404 24.5298L27.5158 25.3138C27.687 25.4992 27.8152 25.7222 27.8776 25.9526L27.878 25.9538L27.8784 25.9556C27.9528 26.2246 27.953 26.541 27.8948 26.8606L28.8996 27.075C28.9816 26.6238 28.9948 26.1284 28.86 25.6394C28.7426 25.207 28.5186 24.8314 28.2404 24.5298V24.5298ZM27.544 27.5286C27.4332 27.6456 27.3109 27.7509 27.1788 27.843H27.1784C26.8184 28.0962 26.4008 28.287 25.9572 28.451L26.288 29.4998C26.7732 29.3204 27.2714 29.1004 27.737 28.7728L27.7382 28.7718L27.7388 28.7714C27.93 28.6375 28.1069 28.4843 28.2666 28.314L27.544 27.5286ZM25.016 28.7464C24.3734 28.9192 23.7166 29.0508 23.0518 29.1624L23.2086 30.2582C23.8928 30.1432 24.5798 30.0058 25.2626 29.8222L25.016 28.7464ZM22.0516 29.3136C21.3824 29.405 20.7096 29.4796 20.0348 29.5432L20.1232 30.6476C20.8084 30.5832 21.4948 30.5074 22.1802 30.4136L22.0516 29.3136ZM19.0206 29.6302C18.3444 29.6838 17.6666 29.7274 16.9882 29.7642L17.0394 30.8714C17.7244 30.8344 18.41 30.7902 19.0954 30.7358L19.0206 29.6302ZM15.9688 29.8142C15.5622 29.8332 15.1546 29.8488 14.746 29.8632L14.7796 30.9714C15.1907 30.9573 15.6018 30.9409 16.0128 30.9222L15.9688 29.8142Z" fill="#00A6FF"/>
</g>
<defs>
<clipPath id="clip0_91_1009">
<rect width="20" height="20" fill="white" transform="translate(11 11)"/>
</clipPath>
</defs>
</svg>
