<svg width="42" height="42" viewBox="0 0 42 42" fill="none" xmlns="http://www.w3.org/2000/svg">
<circle cx="21" cy="21" r="20" fill="#F0E4FF" fill-opacity="0.5" stroke="#9747FF" stroke-width="0.05"/>
<path d="M27.6667 28.5C26.5084 28.5 25.35 28.1083 24.3334 27.4C22.3 28.825 19.7 28.825 17.6667 27.4C16.65 28.1083 15.4917 28.5 14.3334 28.5H12.6667V30.1666H14.3334C15.4834 30.1666 16.6167 29.875 17.6667 29.3416C18.6979 29.8715 19.8406 30.1479 21 30.1479C22.1594 30.1479 23.3021 29.8715 24.3334 29.3416C25.3834 29.8833 26.5167 30.1666 27.6667 30.1666H29.3334V28.5H27.6667ZM14.2917 26.8333H14.3334C15.6667 26.8333 16.85 26.1 17.6667 25.1666C18.4834 26.1 19.6667 26.8333 21 26.8333C22.3334 26.8333 23.5167 26.1 24.3334 25.1666C25.15 26.1 26.3334 26.8333 27.6667 26.8333H27.7084L29.2834 21.2666C29.35 21.05 29.3334 20.8166 29.2334 20.6166C29.1334 20.4166 28.95 20.2666 28.7334 20.2L27.6667 19.85V16C27.6667 15.0833 26.9167 14.3333 26 14.3333H23.5V11.8333H18.5V14.3333H16C15.0834 14.3333 14.3334 15.0833 14.3334 16V19.85L13.2584 20.2C13.1515 20.2328 13.0523 20.2867 12.9665 20.3584C12.8807 20.4301 12.8101 20.5182 12.7589 20.6176C12.7077 20.7169 12.6768 20.8255 12.6681 20.937C12.6594 21.0485 12.6731 21.1605 12.7084 21.2666L14.2917 26.8333ZM16 16H26V19.3083L21 17.6666L16 19.3083V16Z" fill="#9747FF"/>
</svg>
