<svg width="42" height="42" viewBox="0 0 42 42" fill="none" xmlns="http://www.w3.org/2000/svg">
<circle cx="21" cy="21" r="20" fill="#FFECDE" fill-opacity="0.5" stroke="#EB7926" stroke-width="0.05"/>
<path d="M23.37 27.6667H16.4166C15.2675 27.6667 14.3333 26.7325 14.3333 25.5834C14.3333 24.4342 15.2675 23.5 16.4166 23.5H22.25C23.8583 23.5 25.1666 22.1917 25.1666 20.5834C25.1666 18.975 23.8583 17.6667 22.25 17.6667H18.1991C17.8931 18.2666 17.5141 18.8264 17.0708 19.3334H22.25C22.9391 19.3334 23.5 19.8942 23.5 20.5834C23.5 21.2725 22.9391 21.8334 22.25 21.8334H16.4166C14.3491 21.8334 12.6666 23.5159 12.6666 25.5834C12.6666 27.6509 14.3491 29.3334 16.4166 29.3334H24.4108C24.0019 28.819 23.6527 28.2599 23.37 27.6667ZM15.1666 12.6667C13.7883 12.6667 12.6666 13.7884 12.6666 15.1667C12.6666 17.8234 15.1666 19.3334 15.1666 19.3334C15.1666 19.3334 17.6666 17.8225 17.6666 15.1667C17.6666 13.7884 16.545 12.6667 15.1666 12.6667ZM15.1666 16.4167C15.0024 16.4166 14.8398 16.3842 14.6881 16.3213C14.5365 16.2585 14.3986 16.1663 14.2826 16.0502C14.1665 15.934 14.0744 15.7961 14.0116 15.6444C13.9489 15.4927 13.9166 15.3301 13.9166 15.1659C13.9167 15.0016 13.9491 14.8391 14.012 14.6874C14.0749 14.5357 14.167 14.3979 14.2832 14.2818C14.3993 14.1657 14.5372 14.0737 14.6889 14.0109C14.8406 13.9481 15.0033 13.9158 15.1675 13.9159C15.4991 13.916 15.8171 14.0478 16.0515 14.2824C16.2859 14.517 16.4176 14.8351 16.4175 15.1667C16.4173 15.4983 16.2855 15.8163 16.0509 16.0507C15.8163 16.2852 15.4983 16.4168 15.1666 16.4167Z" fill="#EB7926"/>
<path d="M26.8334 22.6667C25.455 22.6667 24.3334 23.7884 24.3334 25.1667C24.3334 27.8234 26.8334 29.3334 26.8334 29.3334C26.8334 29.3334 29.3334 27.8225 29.3334 25.1667C29.3334 23.7884 28.2117 22.6667 26.8334 22.6667ZM26.8334 26.4167C26.6692 26.4166 26.5066 26.3842 26.3549 26.3213C26.2032 26.2585 26.0654 26.1663 25.9493 26.0502C25.8332 25.934 25.7412 25.7961 25.6784 25.6444C25.6156 25.4927 25.5833 25.3301 25.5834 25.1659C25.5834 25.0016 25.6158 24.8391 25.6787 24.6874C25.7416 24.5357 25.8338 24.3979 25.9499 24.2818C26.0661 24.1657 26.2039 24.0737 26.3557 24.0109C26.5074 23.9481 26.67 23.9158 26.8342 23.9159C27.1658 23.916 27.4838 24.0478 27.7183 24.2824C27.9527 24.517 28.0843 24.8351 28.0842 25.1667C28.0841 25.4983 27.9523 25.8163 27.7177 26.0507C27.4831 26.2852 27.165 26.4168 26.8334 26.4167Z" fill="#EB7926"/>
</svg>
